PathFileType	4	(X/Y/Z)	Patient4_TMGait_0pt6_02_right_10.trc.trc
DataRate	CameraRate	NumFrames	NumMarkers	Units	OrigDataRate	OrigDataStartFrame	OrigNumFrames
75.675675675676	75.675675675676	4	33	mm	75.675675675676	124	       141
Frame#	Time	Sacral			L.Shoulder			Chest			R.Shoulder			Neck			R.ASIS			L.ASIS			R.Thigh.Superior			R.Thigh.Lateral			R.Thigh.Inferior			R.Patella			L.Thigh.Superior			L.Thigh.Lateral			L.Thigh.Inferior			L.Patella			L.Shank.Superior			L.Shank.Lateral			L.Shank.Inferior			R.Shank.Superior			R.Shank.Lateral			R.Shank.Inferior			R.Heel			R.Midfoot.Superior			R.Midfoot.Lateral			R.Toe			L.Heel			L.Midfoot.Lateral			L.Midfoot.Superior			L.Toe			L.Elbow			L.Wrist			R.Elbow			R.Wrist			
		X1	Y1	Z1	X2	Y2	Z2	X3	Y3	Z3	X4	Y4	Z4	X5	Y5	Z5	X6	Y6	Z6	X7	Y7	Z7	X8	Y8	Z8	X9	Y9	Z9	X10	Y10	Z10	X11	Y11	Z11	X12	Y12	Z12	X13	Y13	Z13	X14	Y14	Z14	X15	Y15	Z15	X16	Y16	Z16	X17	Y17	Z17	X18	Y18	Z18	X19	Y19	Z19	X20	Y20	Z20	X21	Y21	Z21	X22	Y22	Z22	X23	Y23	Z23	X24	Y24	Z24	X25	Y25	Z25	X26	Y26	Z26	X27	Y27	Z27	X28	Y28	Z28	X29	Y29	Z29	X30	Y30	Z30	X31	Y31	Z31	X32	Y32	Z32	X33	Y33	Z33	

124	13.215357142857	705.193320220362	996.536376567172	425.699284117652	874.112172828823	1410.052287281256	218.808625894124	971.195695595396	1360.291736786140	389.682525903895	875.556936541518	1447.639991458065	550.995468206657	861.208732383746	1483.631033676993	363.031635852992	930.360073588584	934.265246904848	544.830873462786	919.132406823908	952.422534859370	270.309220110659	1001.789196081417	753.121177663643	516.914042144000	946.846854392080	629.985009694729	582.378830595160	1033.712296907888	593.802421413438	501.474457344084	1058.032843361229	509.689164285284	510.932872016098	914.056358767588	726.614645952560	294.821097418377	787.468311021907	635.915115676449	244.591928084261	849.457374826248	540.308320369137	302.107153274624	830.977098652837	472.909387524592	313.611088450672	794.164626944931	408.999771633316	309.619373660090	680.536395381549	309.824088290964	274.667661880281	725.656213518564	192.567505357758	342.406076075500	1043.072428514326	419.267975577483	520.725501325900	987.695861013242	305.453298680547	580.315285979610	1053.634462201327	219.743973030284	525.798195193408	954.301474230332	40.868575293282	494.876271349528	1119.981533596292	105.618385531262	533.359304176013	1036.781983180959	38.538721810397	570.531523757237	1241.905938048046	61.367653123618	563.728935632010	586.948134681260	43.422972160831	401.581286393812	656.684701995532	35.784736129415	318.106538594309	742.468151077613	96.841012304397	336.695450113980	867.749174073215	41.708501432667	304.799848045833	899.097378340119	1054.677276208697	109.252125908145	1064.946667552341	850.521258492394	118.161225352948	749.421665888928	1141.971921413266	696.962144506640	788.845987838154	883.200427310547	716.181788415881	
125	13.228571428571	705.871382768241	995.897178165269	428.228524755180	872.607675413909	1410.399096333020	222.058309323873	971.105012404776	1360.062281181964	392.046056645174	876.144402020450	1446.287995311790	554.457517101059	860.671929571668	1483.330194547706	366.737975460474	931.978357242009	933.342928377489	545.682770163613	919.119118113538	951.773931711850	271.476903803075	1002.527136532434	750.761480418293	516.121817248751	946.029926565744	628.624858539743	581.689369192886	1031.388684881598	591.674820921456	499.643263116607	1054.009319749021	506.923731053107	508.785217089087	914.080800665014	725.746021315776	295.812207053177	786.861382296936	635.338968052630	246.232227963357	848.913346117366	539.273883104607	303.335354081194	830.207339246372	471.213150893901	314.561879158475	791.934762149022	407.868208086869	310.638075130091	676.501051584549	310.667815029644	275.820803368223	719.776015967052	192.415893264317	343.029702795849	1038.346364335373	416.487182324865	519.246265708436	982.136528876208	303.318261456104	579.325603055681	1046.421564842951	216.847984899131	524.077194495647	944.268542638969	39.965148261540	493.961167031923	1111.015171439556	102.368307984962	531.531762703520	1026.832250849548	37.296617767766	569.615800013769	1232.582250284455	56.468850185213	561.900355866387	579.085784906679	44.530722054111	401.766506079321	648.795167329465	36.283179249532	318.269179810059	735.010627928290	96.870404978165	336.829361422455	859.904109871007	41.114048386653	304.750670085669	892.586179841233	1054.655972591678	111.869711366257	1053.012058795124	846.189229343574	118.833001490335	754.727100489491	1138.329045576305	700.565693526733	801.364148736613	880.622734337405	718.691437981643	
126	13.241785714286	706.453343168339	995.728249596562	430.761977805203	871.439697718422	1411.159721858370	225.377581309267	971.195119358980	1360.141230496792	394.505665121410	876.967774178878	1445.312480513058	557.974367924204	860.434413090703	1483.435387287500	370.522548356743	933.422835029375	932.945437096128	546.706130998725	919.118422304138	951.488202589828	272.814011865530	1003.192251793483	749.168206322730	515.545625184683	945.460009370170	627.962583965664	581.337493357244	1029.330939658740	590.288373416368	498.209425796270	1050.385927870150	504.893585474419	507.190201734089	914.424305349335	725.299237441643	297.026406302329	786.842510439485	634.904091584183	247.966878566729	849.289684144400	538.437523334686	304.567449479725	830.492326766045	469.521015291263	315.275097090120	790.445704959953	406.860166717746	311.532597349537	672.996246244091	311.937777203262	277.007622589995	714.262976061907	192.563581459064	343.494921431554	1034.018703004016	414.450882268928	518.205151242247	977.055493989276	301.916748137817	578.849897937548	1039.605313591902	214.682894383419	522.808522337382	934.760628528560	39.462468954426	493.397875657123	1102.331574994623	99.942807919656	530.162780897095	1017.403512313008	36.545641167644	569.045599312193	1223.654601301078	52.790166657248	560.569047232595	571.294869122104	46.298578971696	401.887943657553	640.934206914469	37.025367716080	318.407012825769	727.778251109528	96.956024197016	336.784890325172	852.070482744262	40.489135986905	304.697133028354	885.618711807430	1055.082814053527	114.680862114344	1040.114138941914	842.217463466673	119.262660669090	760.735989244992	1134.923539609193	704.255433847020	814.621078046298	878.479809267381	721.261684962164	
127	13.255000000000	706.944279173905	996.038477743134	433.305351347143	870.621381738556	1412.347064480883	228.738240724219	971.435006156574	1360.546856964253	397.055720384589	877.981114993889	1444.762551589880	561.508579201922	860.469252712372	1483.959280227913	374.341883181177	934.655876187309	933.089439633462	547.960211938359	919.106596821250	951.610254725406	274.341481731124	1003.707341890925	748.330588259350	515.336936430425	944.997106964181	627.922418421543	581.371686313004	1027.481738810784	589.557414422546	497.318755975972	1047.072184257180	503.548502736249	506.226675927307	915.120345419432	725.317635729356	298.431537906178	787.543145523501	634.601241083087	249.721357685972	850.785196835733	537.820395008390	305.691748310083	832.047875609132	467.844599692818	315.604584846126	789.891893719798	405.979766181713	312.186970759857	670.198526031157	313.696935593812	278.141399873730	709.239351357365	193.077134461994	343.712454098424	1030.020151790905	413.106577207219	517.629043100174	972.389391488083	301.181314358799	578.874940647875	1033.163301258768	213.206114346583	521.993543181625	925.834379527593	39.272762456143	493.140439542597	1093.980765200051	98.307610010547	529.239133076487	1008.545325260552	36.193651394456	568.775174974884	1215.163864432169	50.296944198003	559.716286077695	563.647189863774	48.921443848884	401.902743798238	633.135608782226	38.108922829004	318.496101339226	720.842417268316	97.119400991986	336.499539810748	844.241969706581	39.868237216689	304.644339454709	878.245296597224	1056.020353792113	117.681149560608	1026.270602581172	838.695488125191	119.507847552694	767.411800440816	1131.838647644079	708.003140030318	828.597787416622	876.887962504792	723.838203376176	
